<svg id="グループ_61" data-name="グループ 61" xmlns="http://www.w3.org/2000/svg" xmlns:xlink="http://www.w3.org/1999/xlink" width="104.298" height="102.217" viewBox="0 0 104.298 102.217">
  <defs>
    <clipPath id="clip-path">
      <rect id="長方形_62" data-name="長方形 62" width="104.298" height="102.217" fill="#756c15"/>
    </clipPath>
  </defs>
  <g id="グループ_60" data-name="グループ 60" clip-path="url(#clip-path)">
    <path id="パス_183" data-name="パス 183" d="M135.922,134.437h0c.007-.016.008-.019,0,0" transform="translate(-84.251 -83.322)" fill="#756c15"/>
    <path id="パス_184" data-name="パス 184" d="M95.507,143.541a16.818,16.818,0,0,1-2.034,2.516c-.515.416-.61.693-.479,1.217l.033-.031q-1.266,1.41-2.531,2.818c-1.123,1.244-2.25,2.485-3.4,3.754l.337.228L80.118,162.5l-.4-.223,6.12-16.119-.495-.4c-.079.249-.147.5-.239.746q-.383,1.021-.782,2.036c-.918,2.323-1.871,4.632-2.752,6.969-.953,2.529-1.824,5.089-2.759,7.625-.64,1.735-1.055,3.6-2.6,4.854a2.2,2.2,0,0,0-.363.549l.1.231a14.936,14.936,0,0,0,1.9-.479c.344-.133.6-.5.9-.749,1.347-1.109,2.658-2.267,4.059-3.3a42.17,42.17,0,0,1,4.128-2.714c2.457-1.4,4.969-2.713,7.462-4.053.825-.444,1.685-.827,2.486-1.31a1.121,1.121,0,0,0,.371-.8c.065-.922.061-1.849.081-2.774.037-1.747.06-3.495.112-5.242.055-1.851-.31-3.733.387-5.543.043-.112-.071-.283-.177-.657-.8.893-1.5,1.623-2.149,2.4" transform="translate(-47.015 -87.486)" fill="#756c15"/>
    <path id="パス_185" data-name="パス 185" d="M120.3,70.047c.968-.818.931-1.779,1.034-2.8.143-1.409.292-2.817.449-4.32-.4-.225-.048-8.656.733-11.564,2.177,5.579,3,11.409,5.04,16.875a4.017,4.017,0,0,0-.111-1.66c-.654-2.481-1.337-4.953-2-7.433-.639-2.408-1.162-4.852-1.919-7.222-.8-2.493-1.856-4.91-1.18-7.668-.52.346-1.145.647-1.335,1.123-.473,1.18-.727,2.446-1.107,3.665-.691,2.22-1.27,4.489-2.152,6.633-1.13,2.748-2.506,5.395-3.787,8.079-.5,1.05-1.058,2.075-1.536,3.136-.077.17.078.493.2.7.191.306.476.552.677.854,1.222,1.833,2.345,3.739,3.67,5.493a28.51,28.51,0,0,1,3.187,4.754,4.651,4.651,0,0,0,.519.642c.141-1.032.3-1.8.338-2.577a16.93,16.93,0,0,1,.124-3.641,1.369,1.369,0,0,0-.463-1.653l0,0,.368-.941-.222-.091-2.708,3.665-.318-.116a2.679,2.679,0,0,1,.21-.962,14.678,14.678,0,0,1,2.279-2.969m-5.075-7.493,5.964-7.587h0l-5.964,7.586" transform="translate(-69.679 -27.433)" fill="#756c15"/>
    <path id="パス_186" data-name="パス 186" d="M169.268,108.95c-1.48-.049-2.967.117-4.45.114-2.423,0-4.856.049-7.267-.149-3.048-.25-6.076-.732-9.115-1.1-.788-.1-1.58-.156-2.486-.244-.975,1.194-2.022,2.6-3.2,3.884-1.6,1.76-2.488,4.039-4.234,5.688-.533.5-.977,1.1-1.462,1.657l.067.255a11.673,11.673,0,0,0,1.766-.236c1.1-.314,2.155-.761,3.253-1.068a14.184,14.184,0,0,1,2.047-.252l-.53-.376c.459-.129.915-.278,1.382-.382,1.472-.327,2.946-.652,4.425-.948,1.157-.232,2.323-.419,3.509-.63l-.128-.371c1.914-.506,3.742-1.034,5.592-1.466s3.727-.769,5.591-1.147l.111.2L149.5,122.022a.687.687,0,0,0,.745.113c1.06-.718,2.034-1.583,3.15-2.193a116.787,116.787,0,0,0,12.555-8.06,7.406,7.406,0,0,1,4.484-1.859c.142,0,.287-.191.5-.347a5.347,5.347,0,0,0-1.673-.725" transform="translate(-84.955 -66.675)" fill="#756c15"/>
    <path id="パス_187" data-name="パス 187" d="M64.468,122.585l13.911-4.075a3.556,3.556,0,0,0-.587-.4,18.757,18.757,0,0,0-3.416-1.27c-1.167-.213-1.985-1.073-3.258-1.2-1.488-.151-2.9-1.077-4.337-1.686-1.138-.482-2.264-.993-3.485-1.53a1.741,1.741,0,0,1-.086.185q-5.406-2.134-10.8-4.305l.06-.337,17.619.8c.016-.132.032-.263.048-.395a5.625,5.625,0,0,0-1.056-.233c-1.219-.036-2.442.027-3.658-.043q-5.875-.335-11.745-.746c-2.664-.189-5.447.4-8-1.15a3.2,3.2,0,0,0,.849,1.719c1.518,1.1,3.161,2.027,4.7,3.1a41.133,41.133,0,0,1,4,3.042c2.412,2.156,4.727,4.421,7.091,6.631.657.614,1.347,1.194,2.147,1.9" transform="translate(-28.311 -65.825)" fill="#756c15"/>
    <path id="パス_188" data-name="パス 188" d="M154.725,164.849a32.966,32.966,0,0,1-2.356-7.306c-.678-3.411-1.427-6.808-2.141-10.212a1.217,1.217,0,0,1-.051-.669c.366-.782-.211-.917-.71-1.1-.308-.113-.641-.158-.95-.27-2.078-.751-4.144-1.541-6.235-2.255-.788-.27-1.665-.285-2.443-.574a26.238,26.238,0,0,1-2.516-1.255c-.26-.13-.533-.234-.8-.35l-.179.209c.542.927,1.1,1.846,1.624,2.783.582,1.037,1.828,1.679,1.821,3.074,0,.1.205.208.325.3.253.193.512.379.77.566.188.136.378.268.568.4l3.364,6.286c1.76,1.45,2.489,3.3,3.535,4.881,1.127,1.7,2.053,3.529,3.067,5.3l-.135.129-13.892-11.1-.279.316a5.325,5.325,0,0,0,.685.745c.95.71,1.968,1.335,2.881,2.088,1.247,1.028,2.379,2.2,3.636,3.209,2.518,2.03,5.105,3.974,7.626,6a23.436,23.436,0,0,1,2.566,2.429,13.034,13.034,0,0,1,1.207,1.918,5.282,5.282,0,0,1,.009-.918c.076-.346.378-.728.295-1.007a28.19,28.19,0,0,0-1.291-3.624" transform="translate(-84.512 -87.31)" fill="#756c15"/>
    <path id="パス_189" data-name="パス 189" d="M111.081,65.006a39.465,39.465,0,0,0-35.5-39.216,3.025,3.025,0,1,0-6.03-.343c0,.07.006.138.01.206a39.409,39.409,0,0,0-.5,78.675,2.59,2.59,0,0,0,5.008.013,39.459,39.459,0,0,0,37.009-39.335M74.113,103.164a2.593,2.593,0,0,0-5.083-.013,38.236,38.236,0,0,1,.852-76.339,3.022,3.022,0,0,0,5.33.122,38.236,38.236,0,0,1-1.1,76.23" transform="translate(-19.997 -13.898)" fill="#756c15"/>
    <path id="パス_190" data-name="パス 190" d="M104.3,42.522a3.746,3.746,0,0,0-3.005-3.672,51.111,51.111,0,0,0-97.2-6.409c-.021,0-.041,0-.062,0a4.032,4.032,0,0,0-2.214,7.4A51.109,51.109,0,1,0,102.5,45.718a3.739,3.739,0,0,0,1.8-3.2m-3.036,8.587A49.588,49.588,0,1,1,3.247,40.427a4.034,4.034,0,0,0,2.36-7.671A49.591,49.591,0,0,1,99.732,38.87a3.744,3.744,0,0,0,.82,7.4,3.835,3.835,0,0,0,.47-.032q.236,2.405.239,4.874" transform="translate(0.001)" fill="#756c15"/>
  </g>
</svg>
